<svg width="42" height="38" viewBox="0 0 42 38" fill="none" xmlns="http://www.w3.org/2000/svg">
<path d="M32.7932 17.241C35.6002 17.8226 38.3967 16.2353 39.0395 13.6956C39.6823 11.156 37.9279 8.62578 35.1209 8.04422C32.3139 7.46266 29.5174 9.04999 28.8746 11.5896C28.2318 14.1292 29.9862 16.6595 32.7932 17.241Z" stroke="black" stroke-linecap="round" stroke-linejoin="round"/>
<path d="M5.21778 4.49561H1.93652V14.2501C1.93652 19.0752 6.25977 22.9867 11.5928 22.9867C16.9258 22.9867 21.249 19.0752 21.249 14.2501V4.49561H17.9678" stroke="black" stroke-linecap="round" stroke-linejoin="round"/>
<path d="M11.7803 23.0716V26.3498C11.7803 31.8941 16.7479 36.3884 22.8757 36.3884C29.0036 36.3884 33.9711 31.8941 33.9711 26.3498V17.8975" stroke="black" stroke-linecap="round" stroke-linejoin="round"/>
</svg>
