<svg width="67" height="80" viewBox="0 0 67 80" fill="none" xmlns="http://www.w3.org/2000/svg">
<path d="M36.7121 79.9998H30.0817C24.5541 79.9998 20.0743 74.6344 20.0743 68.0138V59.8916C20.0743 57.7213 18.6054 55.9566 16.7888 55.9566H10.0074C4.47976 55.9566 0 50.5911 0 43.9706V36.0292C0 29.4087 4.47976 24.0432 10.0074 24.0432H13.8969C15.3245 24.0432 16.4823 25.4298 16.4823 27.1398C16.4823 28.8497 15.3245 30.2363 13.8969 30.2363H10.0074C7.3351 30.2363 5.16613 32.8341 5.16613 36.0347V43.9761C5.16613 47.1767 7.3351 49.7745 10.0074 49.7745H16.7888C21.4562 49.7745 25.245 54.3069 25.245 59.9026V68.0248C25.245 71.2254 27.414 73.8232 30.0863 73.8232H36.7167C39.389 73.8232 41.5579 71.2254 41.5579 68.0248V62.0181C41.5579 56.9486 39.9106 52.1805 36.918 48.5962L26.238 35.7991C22.2707 31.0419 20.0834 24.7228 20.0834 17.9982V11.986C20.0834 5.36548 24.5632 0 30.0908 0H36.7213C42.2489 0 46.7287 5.36548 46.7287 11.986V20.1082C46.7287 22.2785 48.1975 24.0432 50.0141 24.0432H56.7956C62.3232 24.0432 66.803 29.4087 66.803 36.0292V43.9706C66.803 50.5911 62.3232 55.9566 56.7956 55.9566H52.9107C51.483 55.9566 50.3253 54.57 50.3253 52.8601C50.3253 51.1501 51.483 49.7635 52.9107 49.7635H56.7956C59.4679 49.7635 61.6368 47.1658 61.6368 43.9651V36.0238C61.6368 32.8231 59.4679 30.2253 56.7956 30.2253H50.005C45.3376 30.2253 41.5534 25.6929 41.5534 20.1027V11.986C41.5534 8.78535 39.3844 6.18756 36.7121 6.18756H30.0817C27.4094 6.18756 25.2404 8.77987 25.2404 11.986V17.9927C25.2404 23.0622 26.8877 27.8303 29.8804 31.4146L40.5604 44.2062C44.5323 48.9579 46.7149 55.2825 46.7149 62.0071V68.0138C46.7195 74.6289 42.2397 79.9998 36.7121 79.9998Z" fill="#199A8E"/>
</svg>
