<svg width="28" height="40" viewBox="0 0 28 40" fill="none" xmlns="http://www.w3.org/2000/svg">
<path fill-rule="evenodd" clip-rule="evenodd" d="M16.0828 3.60212C16.3709 3.87074 16.4018 4.31177 16.4635 5.19384L16.5537 6.48192C16.6331 7.61598 16.6728 8.18301 16.9011 8.43825C17.1386 8.70375 17.4994 8.82287 17.8482 8.75098C18.1837 8.68187 18.5532 8.24996 19.2922 7.38614L19.2922 7.38614C19.7172 6.88941 19.9297 6.64105 20.1736 6.55084C20.4289 6.45646 20.7116 6.47018 20.9565 6.58883C21.1905 6.70223 21.378 6.97 21.7528 7.50553L21.7529 7.50555L23.1717 9.53242C23.5253 10.0376 23.7021 10.2902 23.7153 10.5804C23.7284 10.8706 23.5752 11.1382 23.2687 11.6733L22.271 13.4154C21.6073 14.5743 21.2754 15.1537 21.508 15.6299C21.7405 16.106 22.4016 16.2004 23.7237 16.3893L23.9495 16.4215C24.7682 16.5385 25.1776 16.597 25.4221 16.8789C25.6666 17.1609 25.6666 17.5744 25.6666 18.4014V21.5989C25.6666 22.4259 25.6666 22.8394 25.4221 23.1214C25.1776 23.4034 24.7682 23.4618 23.9495 23.5788L23.7241 23.611C22.402 23.7999 21.741 23.8943 21.5084 24.3704C21.2758 24.8465 21.6077 25.426 22.2714 26.5849L23.2688 28.3263C23.5753 28.8614 23.7285 29.129 23.7153 29.4192C23.7022 29.7094 23.5254 29.962 23.1717 30.4672L21.7529 32.494C21.378 33.0296 21.1906 33.2974 20.9565 33.4108C20.7116 33.5294 20.4289 33.5431 20.1737 33.4487C19.9297 33.3585 19.7173 33.1102 19.2923 32.6135C18.5532 31.7496 18.1837 31.3177 17.8483 31.2486C17.4994 31.1767 17.1386 31.2958 16.9011 31.5613C16.6728 31.8166 16.6331 32.3836 16.5538 33.5177L16.4635 34.8065C16.4018 35.6886 16.3709 36.1296 16.0828 36.3982C15.7948 36.6668 15.3526 36.6668 14.4684 36.6668H13.5315C12.6473 36.6668 12.2052 36.6668 11.9171 36.3982C11.629 36.1296 11.5982 35.6886 11.5364 34.8065L11.4463 33.5184C11.3669 32.3843 11.3272 31.8172 11.0988 31.562C10.8614 31.2965 10.5006 31.1774 10.1518 31.2492C9.81632 31.3184 9.44677 31.7503 8.70768 32.6142C8.28267 33.1109 8.07017 33.3593 7.8262 33.4495C7.57098 33.5439 7.28831 33.5302 7.04343 33.4115C6.80934 33.2981 6.62189 33.0303 6.24698 32.4948L4.8282 30.4679C4.47456 29.9627 4.29773 29.7101 4.28458 29.4199C4.27142 29.1297 4.42466 28.8622 4.73115 28.327L5.72889 26.5849C6.39263 25.426 6.7245 24.8466 6.49194 24.3705C6.25937 23.8944 5.59832 23.7999 4.27622 23.6111L4.05047 23.5788C3.23176 23.4618 2.8224 23.4034 2.57786 23.1214C2.33331 22.8394 2.33331 22.4259 2.33331 21.5989L2.33331 18.4014C2.33331 17.5744 2.33331 17.1609 2.57786 16.8789C2.82241 16.597 3.23176 16.5385 4.05047 16.4215L4.27666 16.3892C5.59876 16.2003 6.25981 16.1059 6.49238 15.6298C6.72494 15.1537 6.39307 14.5742 5.72933 13.4153L4.73121 11.6726C4.42472 11.1374 4.27148 10.8699 4.28463 10.5797C4.29779 10.2895 4.47461 10.0369 4.82826 9.53167L6.24704 7.50483C6.62194 6.96926 6.8094 6.70147 7.04348 6.58806C7.28837 6.46943 7.57103 6.45571 7.82626 6.55008C8.07022 6.64028 8.28273 6.88866 8.70773 7.38542C9.44683 8.24929 9.81637 8.68123 10.1518 8.75034C10.5007 8.82221 10.8614 8.70309 11.0989 8.43763C11.3272 8.18238 11.3669 7.61531 11.4463 6.48119V6.48118L11.5364 5.19384C11.5982 4.31177 11.629 3.87074 11.9171 3.60212C12.2052 3.3335 12.6473 3.3335 13.5315 3.3335H14.4684C15.3526 3.3335 15.7948 3.3335 16.0828 3.60212ZM14 26.6668C16.5773 26.6668 18.6666 23.6821 18.6666 20.0002C18.6666 16.3183 16.5773 13.3335 14 13.3335C11.4227 13.3335 9.33332 16.3183 9.33332 20.0002C9.33332 23.6821 11.4227 26.6668 14 26.6668Z" fill="#222222"/>
</svg>
