<svg width="77" height="103" viewBox="0 0 77 103" fill="none" xmlns="http://www.w3.org/2000/svg">
<path d="M11.8778 82.6382C11.3535 82.4938 11.0383 81.9571 11.1858 81.4336C12.8706 75.4522 16.2941 70.1675 20.986 66.3304C25.9235 62.2924 31.9897 60.0831 38.244 60.0452C44.4982 60.0072 50.5908 62.1428 55.5769 66.1206C60.315 69.9006 63.8023 75.1433 65.5595 81.1039C65.7133 81.6256 65.4046 82.166 64.8821 82.3168L49.296 86.8153C42.1876 88.867 34.6502 88.9127 27.5173 86.9474L11.8778 82.6382Z" fill="#222222"/>
<ellipse cx="15.7398" cy="21.303" rx="15.7398" ry="21.303" transform="matrix(-1.0028 0.00608014 0.00608014 1.0028 53.7428 12.9514)" fill="#222222"/>
</svg>
