<svg width="17" height="24" viewBox="0 0 17 24" fill="none" xmlns="http://www.w3.org/2000/svg">
<path fill-rule="evenodd" clip-rule="evenodd" d="M14.875 12C14.875 16.9706 12.0208 21 8.5 21C4.97918 21 2.125 16.9706 2.125 12C2.125 7.02944 4.97918 3 8.5 3C12.0208 3 14.875 7.02944 14.875 12ZM8.5 18C7.94772 18 7.5 17.5523 7.5 17V13H4.95833C4.40605 13 3.95833 12.5523 3.95833 12C3.95833 11.4477 4.40605 11 4.95833 11H7.5V7C7.5 6.44772 7.94772 6 8.5 6C9.05228 6 9.5 6.44772 9.5 7V11H12.0417C12.594 11 13.0417 11.4477 13.0417 12C13.0417 12.5523 12.594 13 12.0417 13H9.5V17C9.5 17.5523 9.05228 18 8.5 18Z" fill="#222222"/>
</svg>
