<svg width="242" height="219" viewBox="0 0 242 219" fill="none" xmlns="http://www.w3.org/2000/svg">
<path d="M31.4667 185.954L38.2489 191.645C38.7197 192.04 38.7278 192.762 38.2659 193.167L31.0679 199.485C30.6957 199.812 30.1408 199.818 29.7615 199.5L24.71 195.261C24.1238 194.769 23.3088 194.654 22.609 194.963L21.5487 195.432C17.2874 197.317 13.745 200.522 11.4444 204.575C10.9943 205.367 11.1745 206.369 11.8729 206.955L16.4408 210.788C16.9116 211.183 16.9196 211.904 16.4577 212.31L9.25978 218.628C8.8876 218.955 8.33269 218.961 7.95333 218.643L2.14989 213.773C-0.412317 211.623 -0.729899 207.796 1.44285 205.253L8.42414 197.082C9.82857 195.439 11.4571 194 13.2619 192.81L24.2846 185.54C26.5066 184.074 29.4276 184.243 31.4667 185.954Z" fill="#222222"/>
</svg>
