<svg width="34" height="27" viewBox="0 0 34 27" fill="none" xmlns="http://www.w3.org/2000/svg">
<path fill-rule="evenodd" clip-rule="evenodd" d="M0.666549 8.59906C0 9.59064 0 10.7187 0 12.9748V20.0209C0 23.1541 0 24.7208 1.42262 25.6941C2.84525 26.6675 5.13493 26.6675 9.71428 26.6675H9.90602V18.3593C9.90602 17.4646 10.4369 16.7685 11.0625 16.3404C11.693 15.909 12.5074 15.6751 13.3571 15.6751H20.6429C21.4926 15.6751 22.307 15.909 22.9375 16.3404C23.5631 16.7685 24.094 17.4646 24.094 18.3593V26.6675H24.2857C28.8651 26.6675 31.1548 26.6675 32.5774 25.6941C34 24.7208 34 23.1541 34 20.0209V12.9748C34 10.7187 34 9.59064 33.3334 8.59906C32.6669 7.60749 31.4151 6.87336 28.9115 5.40509L26.483 3.98081C21.9578 1.32694 19.6952 0 17 0C14.3048 0 12.0422 1.32694 7.51704 3.98081L5.08847 5.40509C2.58489 6.87335 1.3331 7.60749 0.666549 8.59906ZM22.0489 26.6675V18.3593C22.0489 18.3364 22.0361 18.2016 21.7827 18.0283C21.5342 17.8583 21.1343 17.7202 20.6429 17.7202H13.3571C12.8657 17.7202 12.4658 17.8583 12.2173 18.0283C11.9639 18.2016 11.9511 18.3364 11.9511 18.3593V26.6675H22.0489Z" fill="#222222"/>
</svg>
