<svg width="38" height="27" viewBox="0 0 38 27" fill="none" xmlns="http://www.w3.org/2000/svg">
<path fill-rule="evenodd" clip-rule="evenodd" d="M0.00119584 5.30426C0.152972 5.30192 0.307594 5.33377 0.453791 5.4038L18.9317 14.2546L37.0422 4.67438C37.1855 4.59858 37.3388 4.56059 37.4905 4.55688C37.4277 2.61417 37.2737 1.52493 36.5306 0.810939C35.6227 -0.0614832 34.19 -0.0329212 31.3246 0.0242029L5.98154 0.529436C3.11613 0.58656 1.68342 0.615122 0.811003 1.52304C0.0970164 2.26607 -0.0135166 3.36059 0.00119584 5.30426ZM37.5386 6.70441L19.8793 16.0459C19.3117 16.3462 18.6354 16.3597 18.0563 16.0823L0.0386788 7.452L0.309134 21.0183C0.366258 23.8837 0.39482 25.3164 1.30273 26.1889C2.21065 27.0613 3.64335 27.0327 6.50876 26.9756L31.8518 26.4704C34.7172 26.4132 36.1499 26.3847 37.0224 25.4768C37.8948 24.5688 37.8662 23.1361 37.8091 20.2707L37.5386 6.70441Z" fill="#222222"/>
</svg>
