<svg width="65" height="41" viewBox="0 0 65 41" fill="none" xmlns="http://www.w3.org/2000/svg">
<path d="M10.8334 6.83325H17.5997C18.2576 6.83325 18.5866 6.83325 18.841 7.00607C19.0954 7.17889 19.2166 7.48471 19.459 8.09634L20.6655 11.1404C21.1503 12.3637 21.3927 12.9753 21.9015 13.3209C22.4103 13.6666 23.0682 13.6666 24.3841 13.6666H27.0834" stroke="#222222" stroke-width="2" stroke-linecap="round"/>
<path d="M48.75 29.0417H19.569C18.086 29.0417 17.3446 29.0417 17.053 28.5579C16.7614 28.074 17.1079 27.4184 17.8007 26.1073L17.8321 26.0478C18.3807 25.0097 18.655 24.4907 19.1313 24.2037C19.6075 23.9167 20.1946 23.9167 21.3687 23.9167H37.9167" stroke="#222222" stroke-width="2" stroke-linecap="round" stroke-linejoin="round"/>
<path d="M45.0749 23.9167H23.2069C22.2991 23.9167 21.5052 23.3053 21.2733 22.4277L19.456 15.5499C19.2046 14.5985 19.9221 13.6667 20.9062 13.6667H52.098C52.9344 13.6667 53.4012 14.6325 52.8816 15.2879L46.6423 23.1591C46.2629 23.6377 45.6856 23.9167 45.0749 23.9167Z" stroke="#222222" stroke-width="2" stroke-linecap="round"/>
<ellipse cx="46.0417" cy="34.1666" rx="2.70833" ry="1.70833" fill="#222222"/>
<ellipse cx="24.375" cy="34.1666" rx="2.70833" ry="1.70833" fill="#222222"/>
</svg>
