<svg width="43" height="38" viewBox="0 0 43 38" fill="none" xmlns="http://www.w3.org/2000/svg">
<path d="M21.8162 33.4259C30.9726 33.229 38.5122 26.6117 38.3348 18.3591C38.1574 10.1065 30.3403 3.8194 21.1839 4.01626C12.0275 4.21312 4.48785 10.8304 4.66528 19.083C4.84271 27.3356 12.6598 33.6227 21.8162 33.4259Z" stroke="#33363F" stroke-width="2" stroke-linecap="round"/>
<path d="M28.4048 12.4809L14.4315 17.3503" stroke="#33363F" stroke-width="2" stroke-linecap="round"/>
<path d="M14.3334 12.7833L28.5031 17.0476" stroke="#33363F" stroke-width="2" stroke-linecap="round"/>
<path d="M14.5479 22.7628C14.541 22.4416 14.5376 22.2809 14.6058 22.1607C14.647 22.088 14.7056 22.0268 14.7764 21.9825C14.8936 21.9092 15.0542 21.9058 15.3754 21.8989L27.7555 21.6327C28.0767 21.6258 28.2374 21.6223 28.3576 21.6905C28.4303 21.7317 28.4915 21.7904 28.5358 21.8612C28.6091 21.9784 28.6125 22.139 28.6194 22.4602C28.6747 25.0299 28.7023 26.3147 28.1566 27.277C27.8271 27.8581 27.358 28.3478 26.7917 28.7019C25.8537 29.2885 24.5689 29.3161 21.9992 29.3714L21.4591 29.383C18.8894 29.4382 17.6046 29.4658 16.6422 28.9201C16.0612 28.5907 15.5715 28.1216 15.2173 27.5552C14.6308 26.6172 14.6032 25.3324 14.5479 22.7628Z" fill="#33363F"/>
</svg>
