<svg width="39" height="35" viewBox="0 0 39 35" fill="none" xmlns="http://www.w3.org/2000/svg">
<path fill-rule="evenodd" clip-rule="evenodd" d="M16.8131 0.0116556L21.2809 0.00228658C24.1608 -0.00378104 26.4831 -0.00867426 28.3468 0.154194C30.2705 0.322308 31.9392 0.683952 33.4166 1.54832C34.5752 2.2262 35.5706 3.0983 36.346 4.11483C37.3346 5.41101 37.7527 6.87772 37.9519 8.56955C38.1449 10.2086 38.1491 12.2519 38.1544 14.7857L38.1548 14.9869C38.1602 17.5207 38.1645 19.564 37.9784 21.2038C37.7863 22.8965 37.3743 24.3649 36.3911 25.6652C35.6201 26.685 34.6283 27.5613 33.4726 28.244C32.1855 29.0043 30.7519 29.3814 29.1277 29.5824C27.8522 29.7403 26.3752 29.7982 24.6656 29.8219L22.9077 32.9304C21.3512 35.6827 16.8924 35.692 15.3244 32.9462L13.5535 29.8452C11.8438 29.8286 10.3666 29.7769 9.09037 29.6244C7.46539 29.4303 6.03026 29.0592 4.73997 28.3043C3.58135 27.6264 2.58595 26.7543 1.8106 25.7377C0.821956 24.4416 0.403873 22.9749 0.204667 21.283C0.0116781 19.644 0.00741987 17.6007 0.00213914 15.0669L0.00171723 14.8657C-0.00362868 12.3319 -0.00793995 10.2886 0.178173 8.64876C0.370282 6.95611 0.78221 5.48766 1.76541 4.18735C2.53649 3.16757 3.52823 2.2913 4.68399 1.60857C6.15772 0.738015 7.82494 0.369376 9.74793 0.193195C11.6109 0.0225124 13.9332 0.0176658 16.8131 0.0116556ZM10.1847 3.90297C8.59687 4.04845 7.70775 4.31376 7.04566 4.70487C6.3522 5.11451 5.75716 5.64027 5.29452 6.25214C4.8528 6.83632 4.55502 7.61972 4.39639 9.01739C4.23422 10.4462 4.23554 12.2994 4.24112 14.9574C4.24669 17.6154 4.25314 19.4685 4.4213 20.8967C4.58579 22.2937 4.88686 23.0758 5.33102 23.6582C5.79622 24.2681 6.39347 24.7913 7.08864 25.1981C7.66876 25.5375 8.42296 25.7803 9.66309 25.9285C10.9373 26.0808 12.575 26.1181 14.8718 26.1221C15.7291 26.1236 16.4667 26.5729 16.7986 27.2183L19.1126 31.2703L21.4095 27.2086C21.7387 26.5618 22.4743 26.1095 23.3317 26.1044C25.6285 26.0907 27.266 26.0465 28.5395 25.8889C29.779 25.7356 30.5322 25.4895 31.1109 25.1477C31.8044 24.7381 32.3994 24.2123 32.862 23.6004C33.3038 23.0163 33.6015 22.2328 33.7602 20.8352C33.9223 19.4063 33.921 17.5532 33.9154 14.8952C33.9099 12.2372 33.9034 10.384 33.7353 8.95587C33.5708 7.55888 33.2697 6.77673 32.8255 6.1944C32.3603 5.58449 31.7631 5.06123 31.0679 4.6545C30.4042 4.26617 29.514 4.00459 27.9255 3.86577C26.3016 3.72386 24.1954 3.72602 21.1744 3.73236L16.9352 3.74125C13.9142 3.74758 11.808 3.75425 10.1847 3.90297Z" fill="#33363F"/>
</svg>
