<svg width="41" height="38" viewBox="0 0 41 38" fill="none" xmlns="http://www.w3.org/2000/svg">
<path fill-rule="evenodd" clip-rule="evenodd" d="M19.1896 27.9738C25.5742 27.7333 30.5719 22.8086 30.3521 16.974C30.1324 11.1395 24.7785 6.60464 18.3938 6.8451C12.0091 7.08556 7.01149 12.0103 7.23123 17.8448C7.45097 23.6793 12.8049 28.2142 19.1896 27.9738ZM18.5262 10.3596C17.5377 10.3968 16.5637 10.6115 15.6593 10.9934C14.7548 11.3753 13.9348 11.918 13.2482 12.5946C12.5614 13.2713 12.0211 14.0694 11.6631 14.9456C11.3049 15.8222 11.1372 16.7572 11.1726 17.6964C11.1937 18.2559 11.6643 18.6924 12.2239 18.6713C12.7834 18.6503 13.2199 18.1796 13.1988 17.6201C13.1745 16.9737 13.2895 16.3259 13.5401 15.7126C13.7908 15.099 14.1735 14.5295 14.6714 14.0389C15.1694 13.5481 15.7724 13.1466 16.448 12.8614C17.1236 12.5761 17.856 12.4139 18.6025 12.3858C19.162 12.3647 19.5985 11.894 19.5774 11.3345C19.5564 10.775 19.0857 10.3385 18.5262 10.3596Z" fill="#222222"/>
<path d="M34.1667 30.4323L30.75 27.5384" stroke="#222222" stroke-width="2" stroke-linecap="round"/>
</svg>
